<svg xmlns="http://www.w3.org/2000/svg" xmlns:xlink="http://www.w3.org/1999/xlink" width="512" height="512" viewBox="0 0 512 512">
  <defs>
    <clipPath id="clip-path">
      <rect id="Rectangle_7493" data-name="Rectangle 7493" width="512" height="512" transform="translate(70 70)" fill="#fff" stroke="#707070" stroke-width="1"/>
    </clipPath>
    <linearGradient id="linear-gradient" x1="0.5" x2="0.5" y2="1.214" gradientUnits="objectBoundingBox">
      <stop offset="0" stop-color="#c6fae4"/>
      <stop offset="1" stop-color="#fff" stop-opacity="0"/>
    </linearGradient>
    <linearGradient id="linear-gradient-2" x1="0.5" x2="0.5" y2="1" gradientUnits="objectBoundingBox">
      <stop offset="0" stop-color="#e3e6ec"/>
      <stop offset="0.002" stop-color="#e3e6ec"/>
      <stop offset="1" stop-color="#dfdfdf"/>
    </linearGradient>
    <linearGradient id="linear-gradient-3" x1="0.81" y1="0.053" x2="0.5" y2="1" gradientUnits="objectBoundingBox">
      <stop offset="0" stop-color="#96e9d0"/>
      <stop offset="1" stop-color="#94ef98"/>
    </linearGradient>
  </defs>
  <g id="Mask_Group_187" data-name="Mask Group 187" transform="translate(-70 -70)" clip-path="url(#clip-path)">
    <g id="Group_35784" data-name="Group 35784" transform="translate(-6 -5)">
      <path id="Path_134944" data-name="Path 134944" d="M590.4,296.246a14.773,14.773,0,0,1,14.909-13.865q64.712-.031,129.4-.02,50.381.108,100.752-.01c41.4.082,82.8-.01,124.2.041,4.69.1,9.513-.5,14.1.788,2.5,2.243,5.1,4.588,6.635,7.649,1.434,3.7,1.075,7.772,1.147,11.674q-.077,109.533-.041,219.065c-.092,6.789.246,13.578-.225,20.367-77.179.3-154.369.082-231.558.133-39.609-.01-79.217.061-118.826-.092a7.975,7.975,0,0,0,5.673-6.328c1.055-5.97.266-12.063.42-18.074,6.39-.082,12.79.082,19.18-.143,14.029.184,28.058.154,42.1.02,16.579.236,33.168,0,49.756.051,10.906.113,21.822,0,32.727.041,12.114-.01,24.238.092,36.352-.061,24.238.113,48.476.164,72.715-.123,11.336.41,22.7.02,34.048.143,11.561.01,23.122.072,34.683-.061.031-8.806,0-17.6-.01-26.4-.164-61.737.164-123.474-.164-185.212-11.776-.041-23.552.061-35.318.051-12.821-.051-25.631-.051-38.441-.082-5.724.1-11.438.1-17.152.092-16.179.031-32.348-.092-48.528.031-16.005.031-32.021-.2-48.026.061-22-.174-43.991-.133-65.987-.113-4.444.041-8.878-.051-13.312,0-25.979-.236-51.968.01-77.947-.113l-.061.87c-.143,8.827.133,17.654-.123,26.491,4.157.01,8.325.143,12.483.5-4.936.082-9.871.133-14.8.276-6.554-.184-13.107-.113-19.651-.1-.317-.092-.963-.256-1.29-.338C590.5,321.058,590.21,308.647,590.4,296.246Z" transform="translate(-405.568 -10.313)" fill="#c1c7d0"/>
      <path id="Path_134945" data-name="Path 134945" d="M976.318,283.168c4.68-.758,9.871-.481,13.7,2.652,4.444,2.949,5.827,8.5,5.939,13.537.072,70.984-.123,141.968.031,212.952-.184,10.609.276,21.228-.195,31.826-1,5.919-5.212,12.81-12.073,12.257q-232.459.184-464.929.051c-7.854-.215-15.729.43-23.552-.338-5.284-.4-8.274-5.4-10.517-9.585-.911-1.485-1.044-4.291,1.341-4.209,10.639-.6,21.34.358,31.969-.594,8.417.973,16.886.358,25.334.461,12.319.072,24.648-.348,36.967-.051,15.872.369,31.744-.02,47.627-.1,1.812-.031,3.656-.021,5.489-.061,39.608.154,79.217.082,118.826.092,77.19-.051,154.379.164,231.558-.133.471-6.789.133-13.578.225-20.367q.046-109.533.041-219.065c-.072-3.9.287-7.977-1.147-11.674C981.418,287.756,978.817,285.411,976.318,283.168Z" transform="translate(-408.116 -10.302)" fill="#ebecf0"/>
      <g id="Group_35783" data-name="Group 35783" transform="translate(105.197 116)">
        <path id="Path_134907" data-name="Path 134907" d="M773.449,189.441c10.127-9.749,20.142-19.681,30.618-29.061,2.365,2.017,4.864,4.076,6.328,6.892a7.87,7.87,0,0,1-2.1,2.847c-8.806,8.663-17.818,17.091-26.8,25.569-2.97,2.673-5.284,6.369-9.124,7.854-3.686-2.857-6.625-6.646-9.953-9.923-2.734-3.553-6.6-6.154-8.96-9.984,1.239-3.092,4.475-4.68,6.892-6.748a138.258,138.258,0,0,1,10.291,10.5C771.442,188.192,772.138,189.421,773.449,189.441Z" transform="translate(-506.847 -129.241)" fill="#fff"/>
        <path id="Path_134939" data-name="Path 134939" d="M739.195,151.525a52.813,52.813,0,0,1,77.8-8.038,53.941,53.941,0,0,1,17.459,40.837c-.154,4.2-.143,8.469-1.055,12.585-2.806,6.636-5.653,13.394-10.261,19.026-4.454,5.96-10.578,10.322-16.763,14.316-9.452,4.229-19.876,6.789-30.27,5.509a54.283,54.283,0,0,1-23.859-8.52c-11.622-8.294-20.286-20.849-22.9-34.97-2.089-14.141,1.259-29.215,9.841-40.745m34.847,38.646c-1.311-.02-2.007-1.249-2.806-2.058a138.258,138.258,0,0,0-10.291-10.5c-2.417,2.068-5.653,3.656-6.892,6.748,2.355,3.83,6.226,6.431,8.96,9.984,3.328,3.277,6.267,7.066,9.953,9.923,3.84-1.485,6.154-5.181,9.124-7.854,8.981-8.479,17.992-16.906,26.8-25.569a7.87,7.87,0,0,0,2.1-2.847c-1.464-2.816-3.963-4.874-6.328-6.892C794.184,170.49,784.169,180.423,774.042,190.171Z" transform="translate(-507.44 -129.971)" fill="#58daa3"/>
        <path id="Union_113" data-name="Union 113" d="M2.775,93.747C1.9,91.291.687,88.873.6,86.221.207,76.688.2,67.135,0,57.6a32.392,32.392,0,0,1,.585-5.529c.42,1.607.921,3.205,1.433,4.812C11,58.39,20.153,57.21,29.135,58.706a4.722,4.722,0,0,1,1.834-.434,4.721,4.721,0,0,0-1.834.434C20.153,57.21,11,58.39,2.018,56.883,1.506,55.276,1,53.679.585,52.071A139.787,139.787,0,0,1,.43,30.556c.667,1.229,1.383,2.438,2.111,3.655.508.184,1.021.375,1.537.561-.516-.186-1.029-.377-1.537-.561C1.814,32.994,1.1,31.785.43,30.556A271.69,271.69,0,0,1,.738,0c2.612,14.121,11.275,26.675,22.9,34.971a26.182,26.182,0,0,1-5.784.511,26.182,26.182,0,0,0,5.784-.511,54.3,54.3,0,0,0,23.858,8.52c10.395,1.28,20.818-1.28,30.271-5.51,4.853-.787,9.687-1.729,14.581-2.315a19.847,19.847,0,0,1,2.552-.159,19.846,19.846,0,0,0-2.552.159c-4.894.586-9.728,1.528-14.581,2.315,6.185-3.993,12.307-8.355,16.763-14.314,4.608-5.632,7.454-12.392,10.259-19.026,1.4,3.841,1.157,7.985,1.157,12-.041,6.637-.234,13.271-.049,19.908l-.383-.022.383.022c.172,6.175.071,12.369-.349,18.533-.3,2.192-.686,4.362-1.035,6.544-.738-1.229-1.465-2.468-2.171-3.707-1.691.164-3.369.368-5.038.654-.167-.015-.334-.031-.5-.049.167.018.334.034.5.049,1.669-.286,3.347-.49,5.038-.654.706,1.239,1.433,2.479,2.171,3.707.349-2.182.738-4.352,1.035-6.544,1.218,5.868.224,11.879.357,17.809-.48,6.972.768,14.325-2.375,20.848q-26.876.059-53.748.06Q26.278,93.8,2.775,93.747ZM47.681,59.566c2.135.1,4.27.205,6.4.205-2.134,0-4.268-.1-6.4-.205s-4.267-.205-6.4-.205C43.416,59.361,45.548,59.464,47.681,59.566Zm24.079-.161c2.232.124,4.462.248,6.681.248-2.219,0-4.448-.124-6.679-.248s-4.461-.249-6.682-.249C67.3,59.156,69.531,59.28,71.76,59.405Zm8.045.231a32.6,32.6,0,0,0,8.1-1.12A32.6,32.6,0,0,1,79.805,59.637Zm-20.013-.183c-.226.028-.452.054-.678.078.226-.024.452-.05.678-.078Zm-21.725,0,.043,0Zm.15-.014Zm21.79-.015a41.45,41.45,0,0,1,4.39-.269A41.448,41.448,0,0,0,60.008,59.429ZM39.085,59.4l.38-.013Zm-4.707-.531c.109.031.218.063.327.092-.109-.029-.217-.061-.325-.092a11.959,11.959,0,0,0-3.2-.6A11.9,11.9,0,0,1,34.378,58.871Zm54.036-.5-.214.064.214-.064a11.287,11.287,0,0,1,2.891-.352A11.287,11.287,0,0,0,88.413,58.368Zm7.008-.007c-.425-.052-.851-.106-1.276-.155C94.571,58.255,95,58.31,95.421,58.361Zm-3.884-.344h0Zm12.641-21.6c-.751-.074-1.5-.165-2.25-.262C102.677,36.25,103.427,36.341,104.177,36.415ZM9.089,35.881l-.159,0Zm1.4-.123a7.781,7.781,0,0,1-1.377.123,7.781,7.781,0,0,0,1.377-.123Zm1.391-.167c1.076-.095,2.157-.117,3.24-.12C14.036,35.474,12.956,35.5,11.879,35.591ZM95.1,35.507h0Zm-77.432-.025h0Zm-1.19,0,.654,0-.654,0-.6,0Zm-1.145-.006h0Z" transform="translate(221.176 62.3)" fill="url(#linear-gradient)"/>
        <path id="Union_110" data-name="Union 110" d="M23.552,179.766c-.247-47.728.009-95.459-.021-143.177.245-5.3-5.3-9.371-10.322-8.7l-.727-.021c-4.156-.358-8.325-.491-12.482-.5C.256,18.525-.021,9.7.123.872L.185,0C11.477.054,22.771.037,34.063.021,48.752,0,63.443-.021,78.132.114c-.45.267-1.34.809-1.781,1.085C76.792.923,77.683.381,78.132.114c2.3-.028,4.6-.016,6.91,0,2.132.013,4.266.023,6.4,0-.327.542-.983,1.637-1.31,2.189.327-.553.983-1.647,1.31-2.189,21.995-.021,43.992-.062,65.986.111-1.269.871-2.437,1.845-3.666,2.734,1.228-.89,2.4-1.863,3.666-2.734C167.892.052,178.356.093,188.82.132c5.546.021,11.092.043,16.636.034-.779.94-1.5,1.9-2.252,2.857.757-.953,1.474-1.917,2.252-2.857,9.93-.077,19.856-.06,29.782-.043q9.371.016,18.746.011a13.545,13.545,0,0,0-1.235,5.952A13.545,13.545,0,0,1,253.984.134c5.714.01,11.428.01,17.152-.093-1.562,2.993-1.792,6.282-1.79,9.591,0-3.309.228-6.6,1.79-9.591,12.811.032,25.62.032,38.441.084q7.69,0,15.39-.032C331.609.071,338.252.05,344.9.073c.327,61.735,0,123.476.163,185.21-.1-.021-.2-.04-.3-.06.1.02.2.038.3.06.011,8.8.041,17.594.011,26.4-11.561.132-23.122.071-34.683.061-4.427-.049-8.857-.02-13.288.011-6.923.048-13.848.095-20.76-.155a11.759,11.759,0,0,0-5.724-2.394,11.759,11.759,0,0,1,5.724,2.394c-24.239.289-48.477.237-72.715.125-8.381.105-16.769.089-25.153.071q-5.6-.01-11.2-.011c-.564-3.851-3.655-6.359-6.245-8.93,2.59,2.57,5.682,5.079,6.245,8.93-4.425-.018-8.85-.009-13.278,0-6.484.011-12.968.023-19.448-.041-6.282-.02-12.561,0-18.839.023-10.309.035-20.616.071-30.918-.075-14.039.134-28.07.164-42.1-.019-3.915.137-7.835.129-11.755.12-2.476-.007-4.95-.011-7.424.021C23.5,201.125,23.419,190.444,23.552,179.766Zm184.5,30.443c-1.588-.3-3.184-.583-4.752-.851C204.873,209.626,206.469,209.911,208.057,210.209Zm-3.728-3.165c-.357-.39-1.065-1.157-1.411-1.545C203.264,205.887,203.972,206.654,204.329,207.044Zm70.689-3.859c-.174-.205-.523-.615-.695-.819C274.495,202.569,274.843,202.979,275.017,203.185Zm-113.22-.32h0Zm8.7-1.175c-1.17-.03-2.336-.054-3.5-.073C168.161,201.636,169.327,201.659,170.5,201.689Zm-10.4-.077h0Zm3.616-.026h0Zm40.218-.02c-.574-.585-1.147-1.168-1.7-1.751C202.784,200.4,203.356,200.981,203.931,201.566Zm-.512-2.366c-.338-.472-.667-.932-.972-1.381C202.752,198.269,203.081,198.729,203.419,199.2ZM51.274,197.576c0-1.618-.032-3.237-.032-4.85C51.241,194.339,51.271,195.958,51.274,197.576Zm224.277-1.182c-.015-7.864-.112-15.733-.114-23.6C275.439,180.661,275.536,188.53,275.551,196.395Zm-114.814-4.434a99.2,99.2,0,0,0,42.169-3.175l1.413-.39c.553-.172,1.669-.531,2.231-.706a83.2,83.2,0,0,0,24.105-14.6c5.275-3.582,9.022-8.786,13.168-13.517,2.941-3.5,4.724-7.762,6.955-11.714,3.849-7.26,6.043-15.349,7.661-23.38.194-1.923.338-3.857.49-5.783q.216-3.316.43-6.617c.226-3.03.318-6.072.318-9.114-.062-4.759-.022-9.52-.093-14.282.153-4.709.112-9.423.082-14.121-.03-7.2-.062-14.389.03-21.577.021-3.789.032-7.67-1.228-11.284-1.177-3.338-3.586-6.032-5.98-8.54-4.774-2.672-10.354-2.786-15.659-2.939-5.193-.353-10.4-.322-15.6-.292-3.92.021-7.839.043-11.752-.1q-24.1.2-48.2.03c-6.783.1-13.568.073-20.353.047-9.321-.036-18.645-.071-27.96.22-4.832.215-9.747.3-14.427,1.587-3.461.974-5.6,4.086-7.7,6.761-.275.4-.828,1.205-1.106,1.606a31.318,31.318,0,0,0-1.043,5.766l-.749-.022a6.047,6.047,0,0,0-5.07,3.856,6.052,6.052,0,0,1,5.07-3.856c.368,23.01.03,46.029.665,69.021,0,9.357,2.478,18.421,5.643,27.144,5.469,12.382,13.179,24.251,24.361,32.164,1.413,1.117,2.745,2.335,4.137,3.5C134.094,185.233,146.986,191,160.737,191.961ZM130.316,190.9c-.367-5.556-7.568-7.019-7.589-12.68C122.748,183.878,129.949,185.341,130.316,190.9Zm200.288-6.66h0Zm-1.945,0h0Zm-18.069-1.9c2.078.433,4.137.934,6.226,1.354-2.089-.42-4.148-.921-6.226-1.354-2.033-2.518-2.386-5.492-2.386-8.549C308.205,176.842,308.558,179.816,310.591,182.334Zm-215.429-16.3c-2.489,1.361-1.607,4.485-2.16,6.8-.232,2.719-2.358,5-2.349,7.738-.009-2.736,2.117-5.02,2.349-7.738.553-2.312-.329-5.437,2.16-6.8,3.019,3.754,6.124,7.453,9.351,11.043-3.227-3.59-6.332-7.29-9.351-11.045q-.982-1.623-1.958-3.26Q94.176,164.412,95.162,166.034ZM54.828,177.972c2.4.026,4.807.054,7.2-.061-2.391.114-4.795.087-7.2.058-1.667-.019-3.332-.038-4.989-.008q.891-.016,1.783-.015C52.691,177.946,53.758,177.959,54.828,177.972Zm-20.781.012-.2-.01h0Zm15.2-.01h0Zm-15.476,0Zm28.287-.064.162-.009Zm.218-.012.13-.007Zm.229-.012.093-.006Zm.172-.01.112-.007Zm.2-.013.1-.007Zm.2-.013.1-.007Zm.206-.015.079,0Zm.249-.019h0Zm.166-.013.046,0Zm.2-.016.041,0Zm-33.37-1.605c-.025-.033-.049-.066-.073-.1C30.464,176.117,30.489,176.15,30.513,176.184Zm-.574-1c-.047-.106-.093-.219-.131-.331C29.847,174.962,29.892,175.074,29.939,175.181Zm-.131-.331Zm.757-18.34c.6,6.134-.768,12.218-.757,18.34-.009-6.122,1.362-12.2.759-18.34.04-1.844-.787-4.025.446-5.631C29.781,152.484,30.6,154.666,30.565,156.51Zm277.651,10.18c.065.736.086,1.489.086,2.246,0-.757-.021-1.51-.086-2.246-.1-1.229-.135-2.463-.138-3.7C308.081,164.227,308.115,165.46,308.216,166.689Zm-32.639-7.9a14.931,14.931,0,0,0-1.276-6.059A14.931,14.931,0,0,1,275.577,158.791Zm32.4-7.861a43.465,43.465,0,0,1,.224,4.675,43.465,43.465,0,0,0-.224-4.675c-1.248-.338-2.5-.675-3.737-1.013C305.482,150.255,306.732,150.592,307.979,150.93ZM71.743,154.039c0-2.467-3.031-3.494-5.122-3.61C68.71,150.545,71.739,151.575,71.743,154.039Zm-40.6-3.313c1.484-.665,3.175-.481,4.771-.542,4.754.1,9.517.1,14.278.094h-.03c-4.752,0-9.5,0-14.248-.1C34.313,150.244,32.624,150.059,31.14,150.726Zm279.7-2.182c-.222-.02-.443-.038-.662-.059C310.393,148.506,310.615,148.524,310.836,148.544Zm-21.046-.174h0Zm-26.833-.043h0Zm39.405-.116h0Zm-24.738-5.155c0-2.878-.082-5.759-.082-8.639C277.543,137.3,277.627,140.178,277.625,143.056Zm47.264-9.822c0-3.19-.056-6.379-.2-9.562C324.833,126.854,324.888,130.043,324.888,133.233ZM277.6,130.909c0-.074,0-.151,0-.228C277.6,130.758,277.6,130.835,277.6,130.909ZM81.256,57.11c-.041,22.539-.011,45.084-.052,67.637.041-22.551.011-45.1.052-67.637ZM324.7,123.463c0-2.1-2.448-2.571-4.135-2.659C322.251,120.892,324.7,121.358,324.7,123.463Zm-32.465-2.782c.747.011,1.493.019,2.24.019-.747,0-1.493-.008-2.24-.019-.4,0-.8-.009-1.2-.011C291.434,120.672,291.834,120.679,292.234,120.681Zm-2.121-.015h0ZM300.7,120.3c-5.61-1.342-11.58-.839-16.885-3.45C289.119,119.463,295.089,118.96,300.7,120.3Zm-11.6-3.422h0Zm-21.528-.316h0Zm-4.423-.2c-.08-.006-.157-.015-.237-.022C262.99,116.346,263.067,116.354,263.147,116.36Zm34.8-.984q-.9,0-1.8,0Q297.046,115.377,297.946,115.376Zm-3.414,0h0Zm3.569-8.5c0-3.779-.06-7.558-.06-11.338C298.04,99.318,298.1,103.1,298.1,106.876Zm-1.917-21.368c.564.807,1.136,1.624,1.7,2.465.062.368.174,1.125.226,1.5-.052-.37-.164-1.127-.226-1.5-.564-.841-1.136-1.658-1.7-2.465-.226-2.589-.282-5.189-.284-7.79C295.9,80.318,295.958,82.919,296.184,85.508Zm-3.246,2.465c-.151,0-.3-.008-.45-.014C292.636,87.965,292.787,87.969,292.938,87.973Zm.288,0h0Zm-.871-.014-.314-.009Zm-.5-.013-.267-.006Zm-.48-.013c-.077,0-.155,0-.232,0C291.221,87.928,291.3,87.93,291.376,87.93Zm-1.039-.02c-.028,0-.054,0-.082,0C290.283,87.91,290.309,87.91,290.337,87.91Zm-.5-.009h0Zm-22.765-.2h0Zm-.781-.043c-.017,0-.034,0-.052,0C266.26,87.652,266.277,87.652,266.294,87.654Zm-.389-.026c-.054,0-.11,0-.163-.009C265.795,87.624,265.851,87.626,265.9,87.628Zm-.389-.023c-.082,0-.161-.01-.241-.015C265.354,87.595,265.434,87.6,265.515,87.6Zm-.394-.026-.219-.015Zm-.783-.058.392.031-.392-.031-.114-.013Zm-.639-.045h0Zm30.938-32.107a63.422,63.422,0,0,1,1.314,14.542,63.422,63.422,0,0,0-1.314-14.542,28.117,28.117,0,0,1-.321-4.348A28.117,28.117,0,0,0,294.637,55.368Zm.645-18.585c-.286-2.59-1.013-5.131-1.2-7.732C294.269,31.652,295,34.193,295.283,36.783Zm-15.244-9.16h0Zm3.651-.052c1.211-.03,2.42-.071,3.631-.112C286.109,27.5,284.9,27.541,283.689,27.571ZM47.115,27.479q1.058,0,2.113,0Q48.169,27.478,47.115,27.479Zm-.078,0h0Zm-4.012-.02q-.794-.006-1.586-.019Q42.231,27.452,43.026,27.459Zm-4.363-.045h0ZM69.706,27.4q-1.31-.016-2.616-.023Q68.4,27.386,69.706,27.4Zm-4.944-.03h0ZM294.7,27.3h0ZM270.425,27c-.177-.028-.353-.054-.527-.084C270.072,26.943,270.248,26.969,270.425,27ZM35.89,22.455c0-.062-.006-.122-.009-.183C35.883,22.333,35.888,22.394,35.89,22.455Zm-.006-.516c0-2.941-.14-5.92-.14-8.894C35.744,16.02,35.883,19,35.883,21.939Zm274.656-1.634c-.034-1.036-.047-2.073-.047-3.112C310.492,18.232,310.505,19.27,310.539,20.306ZM88.719,2.188l-.265-.019Zm-1.34-.09c-.086-.007-.17-.011-.254-.015C87.208,2.087,87.293,2.091,87.379,2.1Zm-2.233-.075c-.073,0-.146,0-.217,0C85,2.02,85.072,2.02,85.146,2.022ZM19.22.986h0Z" transform="translate(102.72 179.445)" fill="#00a7d0"/>
        <path id="Union_115" data-name="Union 115" d="M67.023,209.086c-7.312-.177-14.629-.1-21.943-.024-5.008.052-10.017.1-15.021.075-2.631-.031-5.264,0-7.9.041a134.841,134.841,0,0,1-17.441-.5c-2.765-2.149-4.965-5.275-4.7-8.941.041-23.51.144-47.029.041-70.542a56.554,56.554,0,0,1,.523-8.623,19.1,19.1,0,0,1-.564-3.706q.061-18.4.114-36.792c.06-5.968-.5-11.981.521-17.9A16.905,16.905,0,0,1,0,57.438C.136,42.08-.06,26.708.288,11.359c.3-2.58-.082-5.611,1.689-7.71C5.583.9,10.273.168,14.7.209c10.019-.1,20.042,0,30.063.107C52.5.4,60.25.477,68,.465,69.3.467,70.62.348,71.938.232A22.469,22.469,0,0,1,79.464.4c.327.082.972.245,1.291.338,6.544-.012,13.1-.082,19.652.1-2.022,1.727-4.686,3.41-4.681,6.271,0-2.861,2.659-4.545,4.681-6.271,4.924-.144,9.86-.2,14.795-.276l.727.021c1.659,2.4,4.251,4.567,4.3,7.7.277,5.632-.1,11.283.463,16.918-.1,4.69.019,9.388.041,14.078-.678-.9-1.353-1.79-2.018-2.681.665.891,1.34,1.781,2.018,2.681,0,13.1.09,26.205-.2,39.3a17.669,17.669,0,0,1-1.476-7.567,17.669,17.669,0,0,0,1.476,7.567c.411,10.232.123,20.473.1,30.711a21.242,21.242,0,0,1-2.078-6.767c-.215,1.986-.482,3.972-.727,5.968-1.168-.111-2.315-.213-3.472-.315-.2,1.168-.409,2.334-.594,3.513-.523-1.015-1.035-2.018-1.536-3.022a34.409,34.409,0,0,0-1.515,9.9l-.452-1.373c-.267-5.231-.093-10.484-.142-15.717.049-11.736-.166-23.471.082-35.2-.267-17.4-.155-34.806-.144-52.2-.071-.359-.215-1.075-.286-1.422-3.769-.062-7.547-.021-11.316-.155-16.755.186-33.516.052-50.279.021-5.221.062-10.443.047-15.664.031q-4.734-.016-9.466-.011c-4.249-.03-8.489-.03-12.719.123a71.91,71.91,0,0,0-.215,10.591c-.019,14.3-.163,28.619.011,42.935-.163,6.5.021,13-.174,19.508A90.987,90.987,0,0,0,8.93,95.39,16.153,16.153,0,0,1,8.793,93.1,16.153,16.153,0,0,0,8.93,95.39,90.987,90.987,0,0,1,9.954,85.7c.37,17.758-.2,35.523.247,53.288-.389,12.922-.011,25.868-.288,38.811a46.737,46.737,0,0,1-.725-8.973,46.737,46.737,0,0,0,.725,8.973c5.157.333,10.324.282,15.49.23,3.195-.032,6.387-.064,9.58,0q8.361-.038,16.729-.021c9.634,0,19.267.009,28.9-.133,5.4.176,10.8.144,16.191.114,3.276-.02,6.553-.039,9.832-.012.8-.011,2.386-.041,3.184-.051.583-6.85.256-13.732.2-20.593.327-13.375-.226-26.759.245-40.132l.452,1.373a34.409,34.409,0,0,1,1.515-9.9c.5,1,1.013,2.008,1.536,3.022.185-1.179.389-2.345.594-3.513,1.157.1,2.3.2,3.472.315.245-2,.512-3.981.727-5.968a21.242,21.242,0,0,0,2.078,6.767c.183,12.6.019,25.191.06,37.786-3.184.751-6.338,1.6-9.511,2.366-.111-2.863-.143-5.729-.144-8.6,0,2.866.033,5.732.144,8.6,3.173-.768,6.327-1.615,9.511-2.366,0,1.034-.009,3.112-.009,4.147-.749,12.125-.359,24.3-.381,36.443.062,4.763.329,9.554-.265,14.3-.308,3.185-3.38,4.914-5.4,7.014-10.944.056-21.885.258-32.825.258C76.891,209.24,71.958,209.2,67.023,209.086Zm-15.5-21.138c-1.8,4.034-1.915,9.185,1.515,12.431,2.756,3.382,7.4,3.167,11.325,2.686,2.519-2.174,5.561-4.641,5.55-8.294,1.076-5.86-4.249-11.757-10.178-11.2-.083,0-.166,0-.247,0C56.259,183.562,53.627,185.721,51.52,187.948Zm-8.188-6.354-.067-.073Zm-4.944-1.771h0ZM1.743,144.364C3.29,148.044,8.674,149,9,153.306a54.273,54.273,0,0,1,.331,6.5,54.273,54.273,0,0,0-.331-6.5c-.329-4.309-5.714-5.262-7.261-8.941a47.737,47.737,0,0,1-.314-5.949A47.737,47.737,0,0,0,1.743,144.364Zm109.33-12.776q0-.2,0-.407Q111.073,131.384,111.073,131.588ZM1.906,76.66c1.332,2.283,3.01,4.331,4.516,6.5,2.113,1.706,2.422,4.165,2.422,6.722,0-2.557-.31-5.016-2.422-6.722-1.506-2.17-3.184-4.218-4.516-6.5A26.885,26.885,0,0,1,1.575,71.9,26.885,26.885,0,0,0,1.906,76.66Zm112.768-39h0Zm.123,0A9.411,9.411,0,0,0,117.409,37,9.43,9.43,0,0,1,114.8,37.661Zm-2.055-.884c-.041-.052-.084-.106-.125-.162C112.659,36.671,112.7,36.726,112.743,36.777ZM52.615,10.724a56.576,56.576,0,0,1-8.795-1.156A56.576,56.576,0,0,0,52.615,10.724Zm3.872-8.541h0Zm-3.56-.012q-1.781-.013-3.558-.028Q51.147,2.159,52.927,2.171Zm-4.238-.026h0Zm-.921,0c-.37,0-.74,0-1.11-.008C47.028,2.136,47.4,2.138,47.768,2.14Zm-5.4-.083q1.384.029,2.769.054-1.384-.023-2.767-.054c-2.078-.043-4.156-.087-6.232-.087C38.21,1.97,40.286,2.014,42.364,2.057Zm12.3,194.626c-1.024-2.949-.973-7.279,2.366-8.7,2.754-1.086,6.768-.665,8.427,2.059.983,2.795,1.136,6.942-1.659,8.754a8.771,8.771,0,0,1-3.655.794A5.9,5.9,0,0,1,54.663,196.683Z" transform="translate(0 206.745)" fill="url(#linear-gradient-2)"/>
        <path id="Union_116" data-name="Union 116" d="M5.4,201.451c.594-4.742.327-9.533.265-14.294.021-12.145-.368-24.321.379-36.445,0-1.035.011-3.113.011-4.148-.041-12.594.123-25.187-.06-37.785.019-10.241.305-20.479-.1-30.709.286-13.1.2-26.2.2-39.3-.021-4.69-.144-9.392-.043-14.081a45.708,45.708,0,0,0,1.116-8.653q.023,22.458.022,44.916,0-22.458-.022-44.916a45.708,45.708,0,0,1-1.116,8.653C5.48,19.056,5.858,13.4,5.581,7.771c-.052-3.133-2.642-5.306-4.3-7.7C6.3-.595,11.848,3.479,11.6,8.774c.03,47.718-.226,95.447.019,143.178-.131,10.679-.05,21.36-.041,32.051-.153,6.012.637,12.1-.42,18.072A7.969,7.969,0,0,1,5.488,208.4c-1.833.041-3.675.03-5.488.063C2.018,206.367,5.09,204.636,5.4,201.451ZM7.172,143.08c0-2.078-.064-4.158-.062-6.238C7.108,138.922,7.173,141,7.172,143.08Z" transform="translate(114.649 207.258)" fill="#a4adbe"/>
        <path id="Union_111" data-name="Union 111" d="M72.795,162.131C59.043,161.17,46.15,155.4,34.8,147.824c-1.392-1.165-2.724-2.386-4.137-3.5-11.18-7.917-18.891-19.785-24.359-32.165C3.143,103.435.665,94.372.665,85.015a107.762,107.762,0,0,0,.74-12.769,107.762,107.762,0,0,1-.74,12.769C.03,62.025.368,39,0,16l.747.021c.964,8.242.2,16.567.839,24.831a19.111,19.111,0,0,1,7.446,7.617c.738-2.048,1.506-4.063,2.181-6.122.1,5.347.041,10.7.48,16.035-.073,3.522-.143,7.048-.142,10.571,0-3.523.068-7.049.142-10.571a123.852,123.852,0,0,0,.573-13.449,123.852,123.852,0,0,1-.573,13.449c-.439-5.335-.379-10.688-.48-16.035.05-1.521.064-3.047.064-4.573,0,1.526-.015,3.052-.064,4.573-.675,2.059-1.443,4.074-2.181,6.122a19.111,19.111,0,0,0-7.446-7.617C.951,32.584,1.71,24.259.747,16.017a31.342,31.342,0,0,1,1.045-5.768c.275-.4.828-1.207,1.106-1.607q.8,2.459,1.626,4.946.862-.7,1.751-1.392,2.982,2.41,6.054,4.73A74.327,74.327,0,0,0,11.248,31.39a74.327,74.327,0,0,1,1.081-14.463c1.626-2.519,4.023-4.875,7.207-4.927-3.184.052-5.581,2.408-7.207,4.927q-3.072-2.32-6.054-4.73-.891.69-1.751,1.392Q3.695,11.1,2.9,8.642C5,5.97,7.136,2.857,10.6,1.885,15.277.594,20.192.512,25.026.3l.11.071L25.026.3c14.93.769,29.9.411,44.81,1.536,1.2.093,2.018,1.076,3.01,1.678-.992-.6-1.812-1.585-3.01-1.678C54.928.708,39.957,1.065,25.026.3,34.342.007,43.663.041,52.985.078,59.77.1,66.556.129,73.339.03q24.1.17,48.2-.03c3.915.14,7.835.119,11.755.095,5.2-.027,10.4-.058,15.6.295,5.305.152,10.886.267,15.657,2.938,2.4,2.509,4.8,5.2,5.981,8.541,1.259,3.614,1.248,7.5,1.228,11.284-.093,7.187-.062,14.377-.03,21.575-3.687.368-7.3,1.239-10.978,1.64a4.551,4.551,0,0,1-.547.033,4.552,4.552,0,0,0,.547-.033c3.677-.4,7.291-1.271,10.978-1.64.03,4.7.071,9.41-.084,14.122-.725-.391-1.444-.779-2.139-1.158a40.36,40.36,0,0,0-5.806,2.232,18.3,18.3,0,0,0-.843,6.123,18.3,18.3,0,0,1,.843-6.123,40.36,40.36,0,0,1,5.806-2.232c.695.379,1.414.768,2.139,1.158.073,4.76.032,9.523.093,14.284-2.631-1.729-5.774-1.9-8.816-1.926,3.042.021,6.185.2,8.816,1.926,0,3.042-.093,6.082-.316,9.112-.471.872-.923,1.743-1.383,2.623a17.757,17.757,0,0,0-6.46-1.291c-.534,1.5-1.065,3-1.536,4.526.268-5.28.9-10.55.89-15.838.007,5.288-.622,10.558-.89,15.838-.155,1.647-.277,3.307-.42,4.976a50.858,50.858,0,0,1-1.5,7.047c-.942.932-1.906,1.844-2.857,2.754-1.7-1.382-3.595-2.591-4.916-4.343a26.116,26.116,0,0,1-1.9-6.912,174.02,174.02,0,0,0,.988-20.285,174.02,174.02,0,0,1-.988,20.285c-.368,2.078-.861,4.138-1.392,6.175-1.076-.746-2.13-1.5-3.184-2.23-.841.817-1.659,1.647-2.448,2.508a76.108,76.108,0,0,1-7.158,16.578c-6.594-6.809-14.009-12.79-20.358-19.846-4.567-4.29-8.489-9.347-13.781-12.8,5.292,3.451,9.214,8.508,13.781,12.8,6.349,7.056,13.764,13.037,20.358,19.846-2.653,5-6.534,9.176-10.292,13.354-1.188-.174-2.549.123-3.511-.728-4.118-3.02-7.3-7.064-10.978-10.548-4.229-4.137-8.909-8.007-11.7-13.321-.555.35-1.1.7-1.62,1.055.411-7.29-3.685-13.781-4.219-20.941,1.179-3.358,3.872-5.836,5.929-8.652a61.5,61.5,0,0,0,3.1,6.472,61.5,61.5,0,0,1-3.1-6.472c7.917-11.632.678-29.891-13.343-32.339a20.879,20.879,0,0,0-18.77,4.271c-7.157,6.031-9.911,16.65-5.867,25.231,1.547,4.29,5.9,7.046,6.923,11.529-.2,7.25-4.445,13.795-4.085,21.146-5.591-2.521-8.655-8.193-13.364-11.878-3.666-2.827-5.888-7.108-9.791-9.669-3.737-4.728-8.457-8.549-12.594-12.891-3.943-4.137-8.693-7.546-11.716-12.5-.053-4.881-.06-9.764-.061-14.646,0,4.882.007,9.765.061,14.646-.005,5.178-.08,10.355-.079,15.533,0-5.178.074-10.355.079-15.533,3.023,4.957,7.773,8.366,11.716,12.5,4.137,4.342,8.857,8.163,12.594,12.891,3.9,2.561,6.125,6.842,9.791,9.669,4.709,3.685,7.773,9.357,13.364,11.878,1.269.563,2.509,1.168,3.8,1.721a2.089,2.089,0,0,0-.141.706,2.089,2.089,0,0,1,.141-.706c1.783.174,3.575.307,5.387.378,6.133.022,12.278.112,18.411.011,2.222.123,4.055-1.22,5.837-2.355.523-.359,1.065-.705,1.62-1.055,2.794,5.314,7.474,9.185,11.7,13.321,3.677,3.483,6.861,7.528,10.978,10.548.962.851,2.323.554,3.511.728,3.758-4.178,7.639-8.355,10.292-13.354a76.108,76.108,0,0,0,7.158-16.578c.789-.86,1.607-1.69,2.448-2.508,1.054.735,2.108,1.484,3.184,2.23.531-2.037,1.024-4.1,1.392-6.175a26.116,26.116,0,0,0,1.9,6.912c1.321,1.752,3.216,2.961,4.916,4.343.951-.91,1.915-1.822,2.857-2.754-3,13.854-10.21,26.572-19.713,37.007h0c9.5-10.435,16.712-23.152,19.713-37.007a50.858,50.858,0,0,0,1.5-7.047q4.421.769,8.876,1.567c-1.618,8.028-3.808,16.117-7.659,23.378-2.233,3.952-4.014,8.214-6.953,11.714-4.148,4.733-7.9,9.936-13.168,13.52a83.24,83.24,0,0,1-24.106,14.6c-.564.175-1.678.531-2.233.708l-1.411.39a101.054,101.054,0,0,1-28.51,4.153A94.726,94.726,0,0,1,72.795,162.131Zm41.493-5.49c1.557-1.185,3.094-2.405,4.681-3.552C117.381,154.235,115.845,155.456,114.287,156.641Zm-33.592-5.1h0Zm.072,0a79.872,79.872,0,0,0,25.389-4.454A79.872,79.872,0,0,1,80.767,151.54Zm24.941-1.071c.665-1.312,1.321-2.623,2-3.922a73.808,73.808,0,0,0,17.152-10.529,87.451,87.451,0,0,0,7.136-6.122c1.046,2.334,1.885,4.842,3.513,6.871.057.027.115.052.174.075-.058-.023-.116-.048-.174-.075-1.629-2.029-2.468-4.537-3.513-6.871a87.451,87.451,0,0,1-7.136,6.122A73.808,73.808,0,0,1,107.7,146.547C107.029,147.846,106.373,149.156,105.708,150.469ZM15.3,103.211c7.024,23.438,27.668,41.923,51.61,46.795-23.942-4.872-44.586-23.357-51.61-46.795-3.053-9.249-3.554-19.067-3.677-28.726a42.724,42.724,0,0,1-3.205,2.92c-3.307-.594-5.2-3.513-7.013-6.011,1.811,2.5,3.707,5.417,7.013,6.011a42.724,42.724,0,0,0,3.205-2.92C11.744,84.144,12.245,93.962,15.3,103.211ZM106.412,147l.14-.048Zm.367-.127.391-.137ZM81.73,146.01h0Zm.047,0a63.051,63.051,0,0,0,17.353-2.421A63.088,63.088,0,0,1,81.778,146.01ZM97.72,141.9c.327-.329,1-1,1.332-1.342C98.722,140.893,98.047,141.568,97.72,141.9Zm40.212-4.689h0Zm.049,0c.18,0,.361-.006.542-.012C138.341,137.2,138.161,137.207,137.981,137.207Zm1.133-.038c.335-.015.669-.03,1-.034C139.782,137.138,139.449,137.154,139.114,137.169ZM70.144,109.917c.82-.45,1.659-.9,2.508-1.33C71.8,109.015,70.964,109.467,70.144,109.917Zm92.774-38.708q.007-.35.006-.705Q162.924,70.858,162.918,71.209Zm-17.172-1.934q0-.39,0-.781Q145.745,68.885,145.746,69.275Zm.111-13.662c0-3.772-.1-7.541-.438-11.3C145.762,48.072,145.855,51.841,145.858,55.613Zm-1.372-.789q-.018-.579-.019-1.158,0,.579.019,1.158Zm6.861-12.266c-.085,2.683-.116,5.367-.114,8.054,0-2.687.029-5.371.114-8.054.523-.082,1.558-.237,2.08-.319-.523.082-1.558.237-2.08.319-.026-1.146-.035-2.292-.036-3.438C151.311,40.267,151.321,41.412,151.346,42.559Zm8.84,3.843c-.043,0-.087,0-.13,0C160.1,46.4,160.143,46.4,160.187,46.4ZM15.492,30.291c.42,5.139-.041,10.322.544,15.461.206-2.177.268-4.365.27-6.557,0,2.191-.064,4.38-.27,6.557-.585-5.139-.125-10.322-.544-15.461Zm-3.245,8.022c0-3.759.056-7.514.357-11.261,1.069.909,2.9,1.47,2.889,3.157.013-1.687-1.82-2.248-2.889-3.157C12.3,30.8,12.247,34.555,12.247,38.313Zm4.966-.678c0-6.306-.014-12.612-.123-18.917l.188-.07-.188.07a54.76,54.76,0,0,0-.905,10.928,54.76,54.76,0,0,1,.905-10.928C17.2,25.023,17.213,31.33,17.213,37.636ZM151.082,20.563c.237,2.969.3,5.945.3,8.926,0-2.98-.061-5.957-.3-8.926-.4-4.824-4.516-8.326-9.175-8.819C146.566,12.237,150.681,15.739,151.082,20.563Zm-6.729-2.306c1.527,2.387,1.364,5.355,1.487,8.068-.123-2.713.041-5.682-1.487-8.068Zm-33.924,2.253c.82-.2,2.438-.594,3.246-.79C112.865,19.917,111.247,20.315,110.428,20.511ZM17.361,18.618l.107-.038Zm.154-.055.143-.051Zm.154-.055c4.321-1.492,8.92-1.474,13.458-1.457.959,0,1.917.006,2.868,0q.915.022,1.83.029-.915-.009-1.83-.029c-.951.009-1.908.007-2.868,0q-.746,0-1.494,0C25.585,17.048,21.517,17.18,17.67,18.509Zm41.221-1.163c-6.6,1.178-13.3.36-19.928,1.106,6.626-.746,13.332.071,19.928-1.106q-.729-.062-1.459-.11Q58.161,17.284,58.891,17.346Zm69.651-.2c-6.267,1.382-12.7.357-19.016,1.2,6.318-.841,12.749.184,19.016-1.2l-1.193-.038Zm.278-.008c2.536-.082,5.191-.395,7.8-.4C134.01,16.739,131.356,17.052,128.82,17.134Zm-73.9-.035-.987-.035Zm-17.266-.012h0Zm5.675-.048c-1.861.023-3.724.047-5.586.047,1.862,0,3.724-.023,5.586-.047Zm39.358-.021c7.816-.117,15.634-.219,23.448-.22C98.322,16.8,90.5,16.9,82.688,17.018ZM46.152,17q1.381-.012,2.763-.015Q47.533,16.992,46.152,17Zm2.925-.015h0ZM106.3,16.8h0Zm30.475-.065h0Zm-14.444-4.58h0Zm.056,0c5.413,0,10.825-.073,16.233-.271C133.208,12.079,127.794,12.152,122.382,12.152Zm-51.83-.187h0Zm.067,0q5.452,0,10.9-.152Q76.073,11.974,70.618,11.965Zm33.339-.012-3.041-.054Zm-83.483-.009c2.54-.142,5.084-.187,7.629-.188C25.557,11.757,23.014,11.8,20.474,11.944ZM41.76,11.9h0Zm.093,0c2.842,0,5.682-.059,8.519-.24C47.536,11.837,44.695,11.894,41.854,11.9Zm-6.88-.069q1.75.026,3.5.049-1.75-.021-3.5-.049l-2.165-.032Zm62.417.01q-5.9-.1-11.8-.171c-5.211-.945-10.505-.831-15.759-.964,5.253.133,10.548.019,15.759.964Q91.491,11.722,97.391,11.836Zm-69.128-.08h0Zm25.919-.03q-1.733-.044-3.465-.094Q52.45,11.682,54.182,11.726Zm74.226-.869c.779-.749,1.558-1.5,2.356-2.233C129.966,9.361,129.187,10.107,128.409,10.856ZM70.85,7.558q.829,1,1.689,2.026Q71.68,8.556,70.85,7.558ZM35.471,1.945c-.261-.009-.523-.014-.786-.017C34.948,1.932,35.21,1.937,35.471,1.945Zm-1.38-.021h0ZM122.327.912l-.052.665.052-.665ZM26.58,1.1h0Zm-.113-.045L26.44,1.04ZM26.357,1,26.306.983ZM26.244.956,26.183.929ZM135.594.918h0Zm.1,0c4.011,0,8.02-.077,12.018-.42C143.719.841,139.709.917,135.7.918ZM131.046.9l2.337.015L131.046.9Q129.924.889,128.8.884,129.924.888,131.046.9ZM26.131.905,26.059.872ZM124.441.885q1-.007,2.01-.007Q125.446.878,124.441.885Zm2.21-.008h0ZM26.02.854,25.938.814ZM25.908.8l-.09-.045ZM25.8.744,25.7.7ZM25.685.686l-.1-.051Zm-.111-.06-.1-.055ZM25.463.564l-.1-.059ZM25.354.5l-.1-.062ZM25.245.435,25.137.368ZM161.619,93.081c.142-1.669.265-3.328.42-4.976.471-1.527,1-3.031,1.536-4.526a17.757,17.757,0,0,1,6.46,1.291c.46-.88.912-1.751,1.383-2.623q-.216,3.3-.43,6.616c-.155,1.925-.3,3.859-.493,5.785Q166.042,93.85,161.619,93.081Z" transform="translate(190.662 209.275)" fill="#f2f3f7"/>
        <path id="Union_105" data-name="Union 105" d="M0,165.295c.277-12.943-.1-25.888.288-38.81,1.935-4.179,1.1-8.878,1.842-13.3.522.45,1.567,1.352,2.1,1.8.9-.146,1.8-.288,2.723-.422,1.054,1.875,2.109,3.738,3.174,5.612.483-.276.963-.543,1.466-.809,2.026,2.427,4.955,3.492,8.017,3.89,1.024,1.813,2.039,3.636,3.063,5.47.346-.492,1.043-1.476,1.392-1.967.645-.194,1.3-.379,1.955-.562.154-1.087.318-2.161.483-3.227.439.492.879.983,1.329,1.485.543-1.29,1.1-2.58,1.63-3.87-.636,7.423,1.678,15.35,7.566,20.213,7.127,6.392,18.075,6.881,26.215,2.14.02,5.674-5.386,8.51-8.09,12.812-1.249,2.866-1.535,6.04-2.591,8.98,1.056-2.94,1.342-6.114,2.591-8.98,2.7-4.3,8.11-7.138,8.09-12.812l.041-.162a28.813,28.813,0,0,0,7.179-8.335,25.579,25.579,0,0,0,2.507-13.807c.442.338,1.312,1,1.751,1.344,0,.095,0,.19,0,.286,0-.1,0-.191,0-.286-.44-.339-1.31-1.006-1.751-1.344-1.4-3.941-2.682-8.14-5.765-11.129-2.9-3.289-6.952-5.12-11.017-6.5-.03-.7-.093-2.089-.123-2.784-.113-3.39-.041-6.777-.03-10.168-.011-4.812.011-9.617.02-14.418,0-4.1.011-8.181.032-12.277-.011-7.926.05-15.854.03-23.776a23,23,0,0,1,1.255,8.48,23,23,0,0,0-1.255-8.48c-.922-2.521-3.328-4.947-6.226-3.762-3.656.514-3.563,4.9-3.86,7.682a18.326,18.326,0,0,1-1.347-7.861A18.326,18.326,0,0,0,46.03,43.5c.214,1.822.338,3.665.439,5.51-2.97.052-5.938.08-8.9.052-.749.037-1.524.028-2.308.02-2.6-.03-5.293-.061-7.369,1.608a21.5,21.5,0,0,0-2.089,4.321,18.008,18.008,0,0,0-5.222,2.732c-5.878-.3-9.749-5.282-13.814-8.918-1.444-.176-2.9-.326-4.343-.472C1.721,50.146.994,51.928.217,53.688.041,39.374.184,25.057.206,10.754c1.669-2.634,1.6-5.8,1.782-8.776,3.533.173,7.371-.349,10.63,1.361,5.447,3.615,10.976,7.239,15.031,12.482-4.055-5.243-9.584-8.867-15.031-12.482-3.258-1.71-7.1-1.188-10.63-1.361C1.8,4.955,1.875,8.12.206,10.754A71.685,71.685,0,0,1,.42.165C4.65.012,8.889.012,13.139.041Q17.87.028,22.6.053C27.823.067,33.045.082,38.267.02,55.03.053,71.792.185,88.547,0c3.767.133,7.547.094,11.316.154.072.348.214,1.065.286,1.422-.011,17.4-.124,34.808.143,52.2-.245,11.726-.03,23.46-.082,35.2-.563.543-1.115,1.106-1.669,1.658-1.115-4.975-6.04-6.992-9.277-10.35-3.154-3-6.778-5.472-9.718-8.687-4.557-5.1-10.413-8.713-15.431-13.3-1.024-1.485-2.037-2.97-3.052-4.444-1.238.379-2.477.769-3.706,1.158-.031-.683-.042-1.37-.043-2.06,0,.689.011,1.377.043,2.06,1.23-.39,2.468-.779,3.706-1.158,1.015,1.475,2.029,2.959,3.052,4.444,5.018,4.588,10.874,8.2,15.431,13.3,2.94,3.215,6.564,5.684,9.718,8.687,3.237,3.357,8.162,5.375,9.277,10.35.554-.552,1.106-1.115,1.669-1.658.052,5.232-.121,10.487.145,15.72-.472,13.373.08,26.756-.247,40.131-.522,1.812-1.106,3.6-1.68,5.416q-.844-2.306-1.658-4.587c-.859.041-1.7.093-2.539.143-.247-.982-.481-1.955-.717-2.929-4.351-2.622-7.516-6.718-11.807-9.411-.9-2.208-2.966-2.208-5-2.208-.6,0-1.191,0-1.751-.054a11.955,11.955,0,0,1-.474-3.572,11.955,11.955,0,0,0,.474,3.572c.561.054,1.154.054,1.751.054,2.031,0,4.094,0,5,2.208,4.291,2.693,7.456,6.789,11.807,9.411.236.974.47,1.946.717,2.929.84-.05,1.68-.1,2.539-.143q.815,2.285,1.658,4.587c.574-1.812,1.158-3.6,1.68-5.416.052,6.86.379,13.74-.206,20.592-.8.012-2.386.041-3.184.05-3.267-.027-6.532-.009-9.8.012-5.406.032-10.814.064-16.222-.113-9.61.141-19.224.137-28.839.132-5.6,0-11.195-.006-16.791.022-3.187-.059-6.374-.028-9.56,0-1.912.02-3.824.039-5.736.039C6.512,165.563,3.255,165.506,0,165.295Zm70.7.071q-.4-.079-.792-.151Q70.3,165.287,70.7,165.366Zm-13.677-.734c1.367-.035,2.735-.065,4.1-.067C59.755,164.566,58.388,164.6,57.02,164.632Zm4.34-.067h0ZM44.71,33.781c-1.251-1.278-2.49-2.548-3.728-3.808-.491.829-.983,1.669-1.466,2.518-.747-.859-1.483-1.711-2.241-2.528.665-.461,1.974-1.372,2.641-1.823-2.734-4.2-6.185-8.59-11.173-10.075-.132.818-.387,2.436-.522,3.245a2.356,2.356,0,0,1-1.365-2.22,2.356,2.356,0,0,0,1.365,2.22c3.113,2.786,6.155,5.644,9.054,8.653.758.817,1.494,1.669,2.241,2.528.483-.849.974-1.688,1.466-2.518C42.22,31.233,43.458,32.5,44.71,33.781Zm26.7-16.229c-1.721.37-2.817,1.9-4.066,2.989-2.13,2.336-5.356,4.393-5.12,7.967,4.577.687,6.841-3.942,9.809-6.5,1.511-1.047,1.9-4.471-.358-4.471A2.532,2.532,0,0,0,71.405,17.552ZM49.02,9.964c.03,4.075-.247,8.181.255,12.247.329,1.731,2.633,1.095,3.3-.01A51.636,51.636,0,0,0,52.3,9.381C51.477,9.523,49.838,9.81,49.02,9.964ZM19.61,123.259c-3.061-.4-5.99-1.463-8.017-3.89-.5.266-.983.532-1.466.809-1.065-1.874-2.119-3.737-3.174-5.612-.922.134-1.823.276-2.723.422-.533-.452-1.578-1.354-2.1-1.8-.738,4.424.093,9.123-1.842,13.3C-.162,108.72.409,90.952.041,73.2c.195-6.5.011-13,.175-19.508.777-1.76,1.5-3.542,2.21-5.334,1.444.146,2.9.3,4.343.472,4.066,3.636,7.937,8.62,13.814,8.918a18.008,18.008,0,0,1,5.222-2.732c1.342,1.362,2.3,3.728,4.546,3.687,2.687.2,5.378.17,8.066.133,2.158-.026,4.317-.055,6.475.041.439.082,1.321.255,1.76.338a30.337,30.337,0,0,1-.615,5.445,32.5,32.5,0,0,1-6.767.38c-.8,0-1.6-.018-2.407-.034a26.8,26.8,0,0,0-8.294.671c-4.044,1.1-3.563,8.763.892,8.755,5.653.439,11.335.112,17.008.45-.214,4.761-.173,9.532-.123,14.306,0,3.173.063,6.358.071,9.534q-.029,2.1-.039,4.206c-2.336,1.035-4.681,2.029-6.954,3.165a21.063,21.063,0,0,0-8.214,10.169c-.613,1.422-1.186,2.877-1.749,4.332-.532,1.29-1.087,2.58-1.63,3.87-.45-.5-.89-.993-1.329-1.485-.165,1.065-.329,2.14-.483,3.227-.654.184-1.31.368-1.955.563-.349.491-1.046,1.475-1.392,1.967C21.649,126.895,20.634,125.071,19.61,123.259Z" transform="translate(9.914 219.249)" fill="#00a7d0"/>
        <path id="Union_112" data-name="Union 112" d="M11.225,131.421c-5.89-4.864-8.2-12.789-7.568-20.214.564-1.453,1.138-2.905,1.751-4.333a21.04,21.04,0,0,1,8.214-10.166,12.709,12.709,0,0,1,5.989,7.486,15.174,15.174,0,0,0-6.094,8.13c0,2.765-.265,5.776,1.2,8.273a12.7,12.7,0,0,0,16.036,5.428,19.282,19.282,0,0,0,6.348-7.116c.6-4.537.1-9.72-3.726-12.78-3.575-3.729-9.238-3.707-13.764-1.935a12.709,12.709,0,0,0-5.989-7.486c2.274-1.136,4.619-2.13,6.951-3.165.013-1.4.021-2.8.043-4.208-.011-3.175-.073-6.36-.073-9.533-.052-4.772-.093-9.543.125-14.3-5.675-.34-11.357-.011-17.01-.452C-.8,65.055-1.28,57.4,2.767,56.29a26.869,26.869,0,0,1,8.3-.669c.8.018,1.6.034,2.4.034a32.772,32.772,0,0,0,6.768-.379,30.388,30.388,0,0,0,.615-5.447c-.441-.081-1.321-.256-1.762-.337-.142-.768-.428-2.315-.574-3.083q-4.376-2.336-8.528-5,4.159,2.672,8.528,5c.146.768.432,2.315.574,3.083-2.156-.095-4.316-.067-6.473-.039-2.689.034-5.38.069-8.067-.136C2.306,49.356,1.343,46.994,0,45.63a21.787,21.787,0,0,1,2.089-4.321c2.076-1.667,4.767-1.638,7.362-1.607.787.009,1.566.017,2.317-.019,2.958.029,5.929,0,8.9-.055-.105-1.841-.226-3.685-.443-5.507.3-2.786.206-7.168,3.861-7.682,2.9-1.187,5.305,1.24,6.226,3.76.019,7.925-.041,15.853-.03,23.776-.021,4.1-.032,8.181-.032,12.278-.009,4.8-.03,9.6-.019,14.416-.011,3.393-.082,6.781.03,10.172.03.694.095,2.089.125,2.783,4.066,1.382,8.119,3.217,11.017,6.5,3.083,2.992,4.363,7.192,5.767,11.134a25.567,25.567,0,0,1-2.51,13.8,28.719,28.719,0,0,1-7.179,8.336l-.039.164a23.626,23.626,0,0,1-11.832,3.162A21.426,21.426,0,0,1,11.225,131.421Zm19-50.751ZM2.418,11.928c.133-.806.389-2.426.523-3.246,4.987,1.487,8.437,5.881,11.172,10.077-.665.449-1.977,1.361-2.642,1.824C8.573,17.571,5.531,14.714,2.418,11.928Zm34,7.2c-.234-3.574,2.99-5.632,5.12-7.969,1.25-1.086,2.345-2.62,4.066-2.99,2.551-.275,2.192,3.371.624,4.455C43.458,15.013,41.3,19.2,37.312,19.2A5.992,5.992,0,0,1,36.415,19.129ZM23.47,12.83c-.5-4.064-.224-8.171-.254-12.247C24.034.432,25.673.144,26.493,0a51.647,51.647,0,0,1,.275,12.819,2.509,2.509,0,0,1-2,1.082A1.226,1.226,0,0,1,23.47,12.83Z" transform="translate(35.718 228.629)" fill="url(#linear-gradient-3)"/>
        <path id="Path_135041" data-name="Path 135041" d="M566.8,455.017c4.526-1.772,10.189-1.792,13.763,1.935,3.83,3.062,4.332,8.243,3.727,12.78a19.3,19.3,0,0,1-6.349,7.117,12.7,12.7,0,0,1-16.036-5.427c-1.464-2.5-1.2-5.509-1.2-8.274A15.175,15.175,0,0,1,566.8,455.017Z" transform="translate(-511.474 -122.196)" fill="#00a7d0"/>
        <path id="Path_135090" data-name="Path 135090" d="M562.969,515.514c2.161-2.284,4.874-4.5,8.213-4.383,5.929-.553,11.254,5.345,10.179,11.2.01,3.656-3.031,6.123-5.55,8.294-3.922.481-8.571.7-11.326-2.683-3.43-3.246-3.318-8.4-1.516-12.431m5.509.031c-3.338,1.423-3.389,5.755-2.365,8.7,1.669,3.215,6.154,3.5,9.134,2.109,2.8-1.812,2.642-5.96,1.659-8.755C575.247,514.879,571.233,514.459,568.478,515.544Z" transform="translate(-511.449 -120.822)" fill="#586a84"/>
        <g id="Rectangle_7492" data-name="Rectangle 7492" transform="translate(203.803 219.042)" fill="#f2f3f7" stroke="#00a7d0" stroke-width="4">
          <path d="M7,0H135a7,7,0,0,1,7,7V71a69,69,0,0,1-69,69H69A69,69,0,0,1,0,71V7A7,7,0,0,1,7,0Z" stroke="none"/>
          <path d="M7,2H135a5,5,0,0,1,5,5V71a67,67,0,0,1-67,67H69A67,67,0,0,1,2,71V7A5,5,0,0,1,7,2Z" fill="none"/>
        </g>
        <path id="Path_135092" data-name="Path 135092" d="M765.181,380.167a20.866,20.866,0,0,1,18.77-4.27c-11.612,3.062-18.422,16.517-14.674,27.781,1.331,4.055,4.567,7,6.8,10.547,1.669,2.652.768,5.929.123,8.755-1.618,5.724-3.308,11.438-4.864,17.193-1.812-.072-3.6-.2-5.386-.379-1.29-.553-2.529-1.157-3.8-1.72-.358-7.352,3.881-13.9,4.086-21.146-1.024-4.485-5.376-7.24-6.922-11.53C755.269,396.817,758.024,386.2,765.181,380.167Z" transform="translate(-506.751 -124.085)" fill="#127188"/>
        <path id="Path_135093" data-name="Path 135093" d="M783.7,375.88c14.019,2.447,21.258,20.705,13.343,32.338-2.058,2.816-4.751,5.294-5.929,8.653.533,7.158,4.629,13.65,4.219,20.941-1.782,1.137-3.615,2.478-5.837,2.355-6.134.1-12.278.01-18.412-.01,1.557-5.755,3.246-11.469,4.864-17.193.645-2.826,1.546-6.1-.123-8.755-2.232-3.543-5.468-6.492-6.8-10.547C765.276,392.4,772.086,378.942,783.7,375.88Z" transform="translate(-506.498 -124.068)" fill="#00a7d0"/>
      </g>
    </g>
  </g>
</svg>
