<svg xmlns="http://www.w3.org/2000/svg" width="279.133" height="275.677" viewBox="0 0 279.133 275.677">
  <g id="watermark" transform="translate(-15.41 -18.4)">
    <g fill="#cef8ff" opacity="0.15" id="_2196fefe" data-name="#2196fefe" transform="translate(15.41 18.4)">
      <path id="Path_141662" data-name="Path 141662" d="M38.585,18.42c27.192,18.828,55.84,35.759,81.779,56.314-5.384.847-10.768,1.659-16.187,2.4C88.635,66.2,72.99,55.4,56.736,45.544c4.876,13.647,10.633,26.989,15.1,40.771-2.946.2-8.906.542-11.886.745C55.619,75.378,50.979,63.8,45.731,52.486c-4.436,13.207-5.757,27.09-8.567,40.7-2.777.779-8.33,2.337-11.073,3.149C27.715,70.027,35,44.495,38.585,18.42Z" transform="translate(10.076 -18.352)"/>
      <path id="Path_141663" data-name="Path 141663" d="M59.85,74.917C86.331,54.837,114.877,37.7,141.934,18.4c5.52,26.041,9.583,52.386,14.155,78.6-3.115-1.185-9.278-3.556-12.36-4.741-3.962-12.868-3.183-26.82-8.534-39.315-5.96,10.8-9.82,22.519-14.256,33.965-3.014-.237-9.109-.711-12.123-.948,4.572-13.173,9.99-26.041,14.595-39.213-16.457,8.7-31.154,20.182-46.629,30.443C71.126,76.475,65.471,75.7,59.85,74.917Z" transform="translate(90.637 -18.4)"/>
      <path id="Path_141664" data-name="Path 141664" d="M22.133,67.276c41.313-9.854,82.66-19.708,124.142-28.885,14.9-.1,28.987,6.265,43.582,8.635,28.919,7.179,58.481,12.055,86.791,21.368.982,2.878,3.014,8.635,4.03,11.513-44.157-8.635-87.57-21.1-131.626-29.935-43.717,9.177-86.791,21.5-130.711,29.8C19.559,75.606,20.846,71.441,22.133,67.276Z" transform="translate(-8.418 29.301)"/>
      <path id="Path_141665" data-name="Path 141665" d="M19.609,71.374C54.86,64.8,89.2,53.63,124.652,48.212c-3.014,4.064-3.183,11.243-8.4,13.376-9.753,2.98-19.844,4.605-29.766,6.84,13.647,8.533,29.664,11.784,44.327,18.049,11.48,4.131,23.941,11.547,36.2,5.757,19.607-8.127,40.5-13.41,59.091-23.738-11.243-2.506-22.485-4.944-33.558-8.127-.948-3.082-2.878-9.211-3.86-12.258,35.285,5.994,69.555,16.9,104.772,23.3.271,3.285.813,9.82,1.084,13.1-12.732-2.98-25.4-6.265-38.265-8.567-.169,21.638.169,43.277-.169,64.915-37.554,11.581-66.981,44.293-76.361,82.219-15.577.1-31.188.237-46.765-.237-9.583-38.231-38.638-70.469-76.4-82.524-.068-21.469.44-42.938-.271-64.407-13.782,2.269-27.158,6.5-40.907,9.041,1.321-4.538,2.743-9.075,4.2-13.579M175.65,102.088a252.291,252.291,0,0,0,31.222,12.326c8.161-10.464,16.356-20.893,23.84-31.9-18.963,4.639-36.877,12.631-55.061,19.573M84.457,83.226c4.3,12.089,13.647,21.2,21.1,31.323a235.886,235.886,0,0,0,31.289-12.6C119.5,95.383,102.336,88.2,84.457,83.226M219.333,119.29q11.835,4.318,23.772,8.5c.339-13.139.779-26.312-.508-39.383-8.567,9.651-16.694,19.742-23.264,30.883M68.947,88.136c-.406,13.207-.2,26.447.2,39.654q12.038-4.064,24.009-8.33c-6.908-11.276-14.392-22.316-24.212-31.323m80.865,23.095c-12.36,4.4-24.585,9.109-36.843,13.85,14.121,17.473,27.4,35.59,40.7,53.673,1.117.068,3.319.169,4.4.2,11.175-12.9,20.352-27.4,31.188-40.6,2.878-4.775,9.38-9.143,6.231-15.306-7.247-2.844-14.663-5.316-21.842-8.263-7.653-2.37-15.814-7.348-23.84-3.556M83.305,135c0,1.151-.034,3.42-.034,4.538C108.6,153.9,127.8,177.4,139.45,203.914c3.149-4.233,6.3-8.466,9.346-12.766-16.153-20.115-31.425-40.873-46.866-61.5-6.265,1.625-12.428,3.522-18.625,5.35m80.662,55.806q4.368,6.7,8.838,13.376c11.818-27.734,32.407-51.506,58.854-66.168a96.087,96.087,0,0,0-21.2-8.838c-14.934,20.927-30.511,41.448-46.494,61.631m-12.36,13.952c-.034,1.625-.1,4.876-.169,6.5l9.278-.1c-.034-1.524-.068-4.605-.068-6.129C157.635,204.93,154.621,204.828,151.607,204.76Z" transform="translate(-15.41 52.497)"/>
    </g>
  </g>
</svg>
