<svg xmlns="http://www.w3.org/2000/svg" width="82.43" height="81.409" viewBox="0 0 82.43 81.409">
  <g id="Logo" transform="translate(-15.41 -18.4)">
    <g id="_2196fefe" data-name="#2196fefe">
      <path id="Path_141662" data-name="Path 141662" d="M29.78,18.42c8.03,5.56,16.49,10.56,24.15,16.63-1.59.25-3.18.49-4.78.71-4.59-3.23-9.21-6.42-14.01-9.33,1.44,4.03,3.14,7.97,4.46,12.04-.87.06-2.63.16-3.51.22-1.28-3.45-2.65-6.87-4.2-10.21-1.31,3.9-1.7,8-2.53,12.02-.82.23-2.46.69-3.27.93C26.57,33.66,28.72,26.12,29.78,18.42Z" fill="#2196fe"/>
      <path id="Path_141663" data-name="Path 141663" d="M59.85,35.09C67.67,29.16,76.1,24.1,84.09,18.4c1.63,7.69,2.83,15.47,4.18,23.21-.92-.35-2.74-1.05-3.65-1.4-1.17-3.8-.94-7.92-2.52-11.61a80.837,80.837,0,0,0-4.21,10.03l-3.58-.28c1.35-3.89,2.95-7.69,4.31-11.58-4.86,2.57-9.2,5.96-13.77,8.99C63.18,35.55,61.51,35.32,59.85,35.09Z" fill="#2196fe"/>
      <path id="Path_141664" data-name="Path 141664" d="M19.46,46.92c12.2-2.91,24.41-5.82,36.66-8.53,4.4-.03,8.56,1.85,12.87,2.55,8.54,2.12,17.27,3.56,25.63,6.31.29.85.89,2.55,1.19,3.4-13.04-2.55-25.86-6.23-38.87-8.84-12.91,2.71-25.63,6.35-38.6,8.8C18.7,49.38,19.08,48.15,19.46,46.92Z" fill="#2196fe"/>
      <path id="Path_141665" data-name="Path 141665" d="M16.65,54.98c10.41-1.94,20.55-5.24,31.02-6.84-.89,1.2-.94,3.32-2.48,3.95-2.88.88-5.86,1.36-8.79,2.02,4.03,2.52,8.76,3.48,13.09,5.33,3.39,1.22,7.07,3.41,10.69,1.7,5.79-2.4,11.96-3.96,17.45-7.01-3.32-.74-6.64-1.46-9.91-2.4-.28-.91-.85-2.72-1.14-3.62C77,49.88,87.12,53.1,97.52,54.99c.08.97.24,2.9.32,3.87-3.76-.88-7.5-1.85-11.3-2.53-.05,6.39.05,12.78-.05,19.17C75.4,78.92,66.71,88.58,63.94,99.78c-4.6.03-9.21.07-13.81-.07A34.5,34.5,0,0,0,27.57,75.34c-.02-6.34.13-12.68-.08-19.02-4.07.67-8.02,1.92-12.08,2.67.39-1.34.81-2.68,1.24-4.01m46.08,9.07a74.5,74.5,0,0,0,9.22,3.64c2.41-3.09,4.83-6.17,7.04-9.42C73.39,59.64,68.1,62,62.73,64.05M35.8,58.48c1.27,3.57,4.03,6.26,6.23,9.25a69.658,69.658,0,0,0,9.24-3.72c-5.12-1.94-10.19-4.06-15.47-5.53M75.63,69.13q3.5,1.275,7.02,2.51a93.992,93.992,0,0,0-.15-11.63,59.184,59.184,0,0,0-6.87,9.12m-44.41-9.2c-.12,3.9-.06,7.81.06,11.71q3.555-1.2,7.09-2.46a42,42,0,0,0-7.15-9.25M55.1,66.75c-3.65,1.3-7.26,2.69-10.88,4.09C48.39,76,52.31,81.35,56.24,86.69c.33.02.98.05,1.3.06,3.3-3.81,6.01-8.09,9.21-11.99.85-1.41,2.77-2.7,1.84-4.52-2.14-.84-4.33-1.57-6.45-2.44-2.26-.7-4.67-2.17-7.04-1.05M35.46,73.77c0,.34-.01,1.01-.01,1.34A40.278,40.278,0,0,1,52.04,94.12c.93-1.25,1.86-2.5,2.76-3.77-4.77-5.94-9.28-12.07-13.84-18.16-1.85.48-3.67,1.04-5.5,1.58M59.28,90.25q1.29,1.98,2.61,3.95A40.435,40.435,0,0,1,79.27,74.66a28.375,28.375,0,0,0-6.26-2.61C68.6,78.23,64,84.29,59.28,90.25m-3.65,4.12c-.01.48-.03,1.44-.05,1.92l2.74-.03c-.01-.45-.02-1.36-.02-1.81C57.41,94.42,56.52,94.39,55.63,94.37Z" fill="#2196fe"/>
    </g>
  </g>
</svg>
