<svg xmlns="http://www.w3.org/2000/svg" width="252.935" height="81.409" viewBox="0 0 252.935 81.409">
  <g id="black" transform="translate(-15.41 -18.4)">
    <g id="_2196fefe" data-name="#2196fefe">
      <path id="Path_141662" data-name="Path 141662" d="M29.78,18.42c8.03,5.56,16.49,10.56,24.15,16.63-1.59.25-3.18.49-4.78.71-4.59-3.23-9.21-6.42-14.01-9.33,1.44,4.03,3.14,7.97,4.46,12.04-.87.06-2.63.16-3.51.22-1.28-3.45-2.65-6.87-4.2-10.21-1.31,3.9-1.7,8-2.53,12.02-.82.23-2.46.69-3.27.93C26.57,33.66,28.72,26.12,29.78,18.42Z" fill="#2196fe"/>
      <path id="Path_141663" data-name="Path 141663" d="M59.85,35.09C67.67,29.16,76.1,24.1,84.09,18.4c1.63,7.69,2.83,15.47,4.18,23.21-.92-.35-2.74-1.05-3.65-1.4-1.17-3.8-.94-7.92-2.52-11.61a80.837,80.837,0,0,0-4.21,10.03l-3.58-.28c1.35-3.89,2.95-7.69,4.31-11.58-4.86,2.57-9.2,5.96-13.77,8.99C63.18,35.55,61.51,35.32,59.85,35.09Z" fill="#2196fe"/>
      <path id="Path_141664" data-name="Path 141664" d="M19.46,46.92c12.2-2.91,24.41-5.82,36.66-8.53,4.4-.03,8.56,1.85,12.87,2.55,8.54,2.12,17.27,3.56,25.63,6.31.29.85.89,2.55,1.19,3.4-13.04-2.55-25.86-6.23-38.87-8.84-12.91,2.71-25.63,6.35-38.6,8.8C18.7,49.38,19.08,48.15,19.46,46.92Z" fill="#2196fe"/>
      <path id="Path_141665" data-name="Path 141665" d="M16.65,54.98c10.41-1.94,20.55-5.24,31.02-6.84-.89,1.2-.94,3.32-2.48,3.95-2.88.88-5.86,1.36-8.79,2.02,4.03,2.52,8.76,3.48,13.09,5.33,3.39,1.22,7.07,3.41,10.69,1.7,5.79-2.4,11.96-3.96,17.45-7.01-3.32-.74-6.64-1.46-9.91-2.4-.28-.91-.85-2.72-1.14-3.62C77,49.88,87.12,53.1,97.52,54.99c.08.97.24,2.9.32,3.87-3.76-.88-7.5-1.85-11.3-2.53-.05,6.39.05,12.78-.05,19.17C75.4,78.92,66.71,88.58,63.94,99.78c-4.6.03-9.21.07-13.81-.07A34.5,34.5,0,0,0,27.57,75.34c-.02-6.34.13-12.68-.08-19.02-4.07.67-8.02,1.92-12.08,2.67.39-1.34.81-2.68,1.24-4.01m46.08,9.07a74.5,74.5,0,0,0,9.22,3.64c2.41-3.09,4.83-6.17,7.04-9.42C73.39,59.64,68.1,62,62.73,64.05M35.8,58.48c1.27,3.57,4.03,6.26,6.23,9.25a69.658,69.658,0,0,0,9.24-3.72c-5.12-1.94-10.19-4.06-15.47-5.53M75.63,69.13q3.5,1.275,7.02,2.51a93.992,93.992,0,0,0-.15-11.63,59.184,59.184,0,0,0-6.87,9.12m-44.41-9.2c-.12,3.9-.06,7.81.06,11.71q3.555-1.2,7.09-2.46a42,42,0,0,0-7.15-9.25M55.1,66.75c-3.65,1.3-7.26,2.69-10.88,4.09C48.39,76,52.31,81.35,56.24,86.69c.33.02.98.05,1.3.06,3.3-3.81,6.01-8.09,9.21-11.99.85-1.41,2.77-2.7,1.84-4.52-2.14-.84-4.33-1.57-6.45-2.44-2.26-.7-4.67-2.17-7.04-1.05M35.46,73.77c0,.34-.01,1.01-.01,1.34A40.278,40.278,0,0,1,52.04,94.12c.93-1.25,1.86-2.5,2.76-3.77-4.77-5.94-9.28-12.07-13.84-18.16-1.85.48-3.67,1.04-5.5,1.58M59.28,90.25q1.29,1.98,2.61,3.95A40.435,40.435,0,0,1,79.27,74.66a28.375,28.375,0,0,0-6.26-2.61C68.6,78.23,64,84.29,59.28,90.25m-3.65,4.12c-.01.48-.03,1.44-.05,1.92l2.74-.03c-.01-.45-.02-1.36-.02-1.81C57.41,94.42,56.52,94.39,55.63,94.37Z" fill="#2196fe"/>
    </g>
    <g id="_ffffffff" data-name="#ffffffff">
      <path id="Path_141666" data-name="Path 141666" d="M207.49,41.86c1.94.01,4.37-.93,6.01.54,1.23,1.58.22,3.56.05,5.32q-3.15.075-6.29-.07A55.823,55.823,0,0,1,207.49,41.86Z" fill="#1e293b"/>
      <path id="Path_141667" data-name="Path 141667" d="M109.91,43.89c1.84-1.51,4.23-.84,6.35-.54.11,5.05-.03,10.1.16,15.15,3.69-4.72,6.78-9.87,10.41-14.62,2.06-1.68,4.8-.83,7.08-.17-3,5.27-7.07,9.83-10.65,14.71,3.47,6.13,8.28,11.5,11.11,17.97-2.7.04-6.73,1.52-8.12-1.72-3.31-5.01-6.29-10.24-9.86-15.08-.16,5.65.01,11.3-.17,16.95-1.94.11-3.88.14-5.81.12C109.25,65.79,110,54.8,109.91,43.89Z" fill="#1e293b"/>
      <path id="Path_141668" data-name="Path 141668" d="M139.23,53.26c3.54-2.08,7.8-1.91,11.75-1.59a6.758,6.758,0,0,1,6.12,6.11c.36,6.28.12,12.58.12,18.87-2.32.02-5.32.73-5.36-2.57l-1.43,1.43c-2.32.95-4.84,2.32-7.4,1.51-3.51-.38-6.85-3.44-6.55-7.13-.41-3.03,1.98-5.24,4.28-6.74a32.858,32.858,0,0,1,10.57-1.31c0-1.18.01-2.35.02-3.53-.94-.88-1.89-1.75-2.84-2.6l-3.65.08c-.98.47-1.96.93-2.94,1.39a7.9,7.9,0,0,1-4.19.43c-.13-1.57-.33-3.66,1.5-4.35m4.27,13.43c-.68,1.84-1.49,4,.25,5.55,2.68,1.83,5.52-.27,7.6-1.96-.01-1.55-.03-3.1-.05-4.65A30.182,30.182,0,0,0,143.5,66.69Z" fill="#1e293b"/>
      <path id="Path_141669" data-name="Path 141669" d="M164.31,51.83c1.63-.03,3.26-.04,4.9-.02.07.84.22,2.54.29,3.39,2.53-1.78,5.09-4.18,8.45-3.72,2.93-.41,4.97,1.8,6.97,3.53,3.24-2.79,7.69-4.83,11.87-2.79,3.43,1.91,4.02,6.19,4.1,9.74-.03,4.86.1,9.73-.15,14.58a56.79,56.79,0,0,1-6.12.01c-.18-5.2.06-10.41-.12-15.6a4.794,4.794,0,0,0-2.43-4.17c-2.79-.77-5.09,1.59-6.44,3.73-.41,5.34.07,10.73-.23,16.09q-2.955.12-5.91-.05c-.21-5.73,0-11.46-.14-17.2a19.279,19.279,0,0,0-2.53-2.58c-2.72-.69-5.01,1.55-6.36,3.63-.35,5.39.03,10.8-.17,16.19q-2.97.12-5.94,0C164.19,68.34,164.26,60.08,164.31,51.83Z" fill="#1e293b"/>
      <path id="Path_141670" data-name="Path 141670" d="M207.44,52.16c1.96-.62,4.03-.35,6.05-.35.14,8.26.12,16.53.01,24.79-2.03.07-4.06.04-6.08-.06C207.28,68.42,207.18,60.28,207.44,52.16Z" fill="#1e293b"/>
      <path id="Path_141671" data-name="Path 141671" d="M225,51.98c4.63-.98,9.39.21,14.08-.09,3.12-.6,1.75,3.03,1.68,4.72l-2.95.12a8.7,8.7,0,0,1-1.93,9.18c-1.84,1.74-4.47,1.84-6.8,2.35-1.47-.38-2.95-.72-4.43-1.03-.22,1.29-.85,2.82.72,3.51,4.47.3,9.43-.23,13.31,2.45,1.66,1.58,2.85,4.2,1.86,6.45-1.15,4.03-5.53,6.35-9.54,6.11-4.28.01-9.61.72-12.46-3.28-1.15-2.97.07-5.86,2.12-8.04-1.87-2.89-2.02-6.67.58-9.21-3.4-4.34-1.73-11.61,3.76-13.24m.63,4.87c-.8,1.61-.41,3.47-.5,5.19,1.44.92,2.82,2.42,4.71,1.82,2.46-.64,4.8-4.31,2.56-6.4-1.38-2.46-4.86-2.36-6.77-.61m-1.44,24.09c3.36,1.34,7.32,1.51,10.28-.83-.03-.81-.11-2.42-.15-3.23-2.42-2.11-5.89-1-8.8-1.37A6.856,6.856,0,0,0,224.19,80.94Z" fill="#1e293b"/>
      <path id="Path_141672" data-name="Path 141672" d="M251.17,52.16c5.15-1.35,12.04-1.3,15.24,3.74a17.265,17.265,0,0,1-.19,16.24c-1.8,2.97-5.09,4.34-8.32,5.1-4.66.21-10.48-.84-12.61-5.58-3.22-6.56-1.79-16.82,5.88-19.5m.58,5.48c-1.82,3.75-2.43,8.37-.37,12.15,2.02,3.69,8.42,3.21,9.79-.82a17.739,17.739,0,0,0,.01-9.72C259.51,55.5,254.72,55.59,251.75,57.64Z" fill="#1e293b"/>
    </g>
  </g>
</svg>
